/* XPM */
static char *dc699cf3186b4496abf7f440e0d0e870h3HQwT5fuRXRmopo[] = {
/* columns rows colors chars-per-pixel */
"50 50 215 2 ",
"   c #0E0202",
".  c #191104",
"X  c #301E10",
"o  c #2E1A11",
"O  c #26240B",
"+  c #262607",
"@  c #2F2E10",
"#  c #352A11",
"$  c #56581D",
"%  c #776A52",
"&  c #897A65",
"*  c #7CA63E",
"=  c #4BAF4F",
"-  c #54AE4E",
";  c #5BAD4D",
":  c #4DB04E",
">  c #51B04F",
",  c #5BB14F",
"<  c #46AF50",
"1  c #4DAF51",
"2  c #51AF51",
"3  c #4CB050",
"4  c #53B151",
"5  c #5AB250",
"6  c #6DAB46",
"7  c #64AC49",
"8  c #67AA48",
"9  c #72AA44",
"0  c #7BA940",
"q  c #75A743",
"w  c #65B44F",
"e  c #6CB54D",
"r  c #74B94E",
"t  c #7AB94D",
"y  c #70B752",
"u  c #9F9704",
"i  c #9F960D",
"p  c #9C9C1A",
"a  c #9B991A",
"s  c #A69B05",
"d  c #A99E04",
"f  c #A49C0B",
"g  c #A99E0E",
"h  c #A49E16",
"j  c #ADA204",
"k  c #ABA10A",
"l  c #B3A605",
"z  c #B5AA05",
"x  c #B9AD05",
"c  c #B3A609",
"v  c #B6A90A",
"b  c #BAAD0B",
"n  c #BEB206",
"m  c #BEB10B",
"M  c #A3A11C",
"N  c #AAA211",
"B  c #BAB118",
"V  c #8D9E2E",
"C  c #9A9D23",
"Z  c #939D29",
"A  c #889F33",
"S  c #8FA12E",
"D  c #9DA327",
"F  c #8CA635",
"G  c #83A63A",
"H  c #86A63A",
"J  c #95A734",
"K  c #95B43C",
"L  c #A7AA25",
"P  c #AEB12B",
"I  c #B7B52C",
"U  c #BAB939",
"Y  c #AAB533",
"T  c #C2B60B",
"R  c #C5BA0A",
"E  c #CABD0C",
"W  c #C3B509",
"Q  c #C4B610",
"!  c #C5B911",
"~  c #CABD12",
"^  c #C6BA18",
"/  c #BEC238",
"(  c #CDC20B",
")  c #D3C60E",
"_  c #D9C90C",
"`  c #DED00F",
"'  c #CAC118",
"]  c #D2C514",
"[  c #D6C913",
"{  c #DBCC14",
"}  c #D2C31A",
"|  c #DCCD19",
" . c #D4C91B",
".. c #DED114",
"X. c #E3D50D",
"o. c #E1CF13",
"O. c #E3D414",
"+. c #E7D915",
"@. c #EBDB14",
"#. c #E4D41B",
"$. c #ECDC1D",
"%. c #E8D71C",
"&. c #F1DE1C",
"*. c #F1E214",
"=. c #F4E51B",
"-. c #F6EB1B",
";. c #FAED1D",
":. c #F7EB17",
">. c #FDF11C",
",. c #C8C92D",
"<. c #D5CB28",
"1. c #DCD92B",
"2. c #C3C93C",
"3. c #C8D33C",
"4. c #C5D53E",
"5. c #D8D839",
"6. c #ECDD22",
"7. c #E8D827",
"8. c #F1DF21",
"9. c #E2DF32",
"0. c #ECE42D",
"q. c #F4E323",
"w. c #F6ED23",
"e. c #FBEC23",
"r. c #F4E72A",
"t. c #F6E82C",
"y. c #FBED2B",
"u. c #F9E726",
"i. c #FCF324",
"p. c #FEF924",
"a. c #FDF32B",
"s. c #FEFA2C",
"d. c #EAE536",
"f. c #E8E738",
"g. c #F7EE3E",
"h. c #F8EC34",
"j. c #FDF331",
"k. c #FEFA34",
"l. c #FCF23A",
"z. c #FEFB3C",
"x. c #F6F43D",
"c. c #979555",
"v. c #86AC42",
"b. c #86B544",
"n. c #8BB444",
"m. c #84BB4C",
"M. c #8BBD49",
"N. c #8BBA47",
"B. c #8BBF50",
"V. c #91B843",
"C. c #BCBB43",
"Z. c #B9B84A",
"A. c #B9B757",
"S. c #B2AF46",
"D. c #949363",
"F. c #BAB863",
"G. c #C1BD4F",
"H. c #8BC04E",
"J. c #9AC146",
"K. c #98C24B",
"L. c #A8C846",
"P. c #B8CE46",
"I. c #B1C842",
"U. c #BBD246",
"Y. c #A5C757",
"T. c #B8D352",
"R. c #C3D444",
"E. c #CDDB4E",
"W. c #D5DB42",
"Q. c #CACA52",
"!. c #DCE146",
"~. c #E6E547",
"^. c #F4ED4B",
"/. c #FCF343",
"(. c #FEFC43",
"). c #FDF44C",
"_. c #FEFC4B",
"`. c #FCEF53",
"'. c #FEF453",
"]. c #FEFC53",
"[. c #FEF45D",
"{. c #FFFC5B",
"}. c #F6F559",
"|. c #EDEA51",
" X c #C5C46C",
".X c #F0ED60",
"XX c #FEF564",
"oX c #FFFC64",
"OX c #FEF66B",
"+X c #FEFC6C",
"@X c #F5F362",
"#X c #FEF672",
"$X c #FEFB74",
"%X c #FEF67A",
"&X c #FEFB7C",
"*X c #EBEC64",
"=X c #A29B8B",
"-X c #AAA593",
";X c #BBB6A7",
":X c #C6BFAF",
">X c #C5BFB3",
",X c #DCDA83",
"<X c #FEF783",
"1X c #FEFB84",
"2X c #FEFC8C",
"3X c #FFF788",
"4X c #FFFD92",
"5X c #FFFD96",
"6X c #FFFC93",
"7X c #FFFD98",
"8X c #F6F595",
"9X c #E9E782",
"0X c #C9C3B6",
"qX c #D0D1CB",
"wX c #D1CEC7",
/* pixels */
"3 3 3 3 3 3 3 3 3 3 3 3 3 3 3 3 3 3 3 3 3 3 3 3 5 4 3 3 3 3 1 1 3 3 3 3 3 3 3 3 3 3 3 3 3 3 3 3 3 3 ",
"3 3 3 3 3 3 3 3 3 3 3 3 3 3 3 3 3 3 3 3 1 3 3 5 Y.Y.1 3 3 3 3 = 3 3 3 3 3 3 3 3 3 3 3 3 3 3 3 3 3 3 ",
"3 3 3 3 3 3 3 3 3 3 3 3 3 3 3 3 3 3 3 3 3 3 < B..X~.e 3 3 1 3 3 3 3 3 3 3 3 3 3 3 3 3 3 3 3 3 3 3 3 ",
"3 3 3 3 3 3 3 3 3 3 3 3 3 3 3 3 3 3 3 3 3 1 4 E.OX^.Y 1 = 3 3 1 3 3 3 3 3 3 3 3 3 3 3 3 3 3 3 3 3 3 ",
"3 3 3 3 3 3 3 3 3 3 3 3 3 3 3 3 3 3 3 3 3 3 K.|.#X`.<.8 3 3 3 3 3 3 3 3 3 3 3 3 3 3 3 3 3 3 3 3 3 3 ",
"3 3 3 3 3 3 3 3 3 3 3 3 3 3 3 3 3 = 3 1 1 5 R.[.%X[.7.K 1 3 3 3 3 3 3 3 3 3 3 3 3 3 3 3 3 3 3 3 3 3 ",
"3 3 3 3 3 3 3 3 3 3 3 3 3 3 3 3 3 1 1 3 1 H.~.XX%XXXh.I 7 3 3 3 3 3 3 3 3 3 3 3 3 3 3 3 3 3 3 3 3 3 ",
"3 3 3 3 3 3 3 3 3 3 3 3 3 3 3 3 3 3 3 3 5 P./.#X<XXXl.| v.: 3 3 3 3 3 3 3 3 3 3 3 3 3 3 3 3 3 3 3 3 ",
"3 3 3 3 3 3 3 3 3 3 3 3 3 3 3 3 3 : 3 3 t d.).%X<XOX/.6.P ; 3 3 3 3 3 3 3 1 3 3 3 3 3 3 3 3 3 3 3 3 ",
"3 3 3 3 3 3 3 3 3 3 3 3 3 3 3 3 3 3 3 4 P.l.[.<X<X#X).t.} v.3 3 3 3 : 3 3 = 3 3 3 3 3 3 3 3 3 3 3 3 ",
"3 3 3 3 3 3 3 3 3 3 3 3 3 3 3 3 3 3 3 r d./.OX3X3X#X'.j.#.P ; 1 3 3 3 3 : 1 3 3 3 3 3 3 3 3 3 3 3 3 ",
"3 3 3 3 3 3 3 3 3 3 3 3 3 3 3 1 3 : 3 R.j.'.#X2X3X$X].l.6.~ G 1 1 : 3 3 3 3 3 3 3 3 3 3 3 3 3 3 3 3 ",
"3 3 3 3 3 3 3 3 3 3 3 3 = 3 3 3 3 : t d.l.[.1X4X2X$X{.z.r.| L ; 3 3 3 3 3 3 3 3 3 3 3 3 3 3 3 3 3 3 ",
"3 3 3 3 3 3 3 3 3 3 1 3 3 3 3 1 3 : 4.h.).OX3X6X2X$X{.(.a.#.^ G 3 3 3 3 3 3 3 3 3 3 3 3 3 3 3 3 3 3 ",
"3 3 3 3 3 3 3 3 3 3 3 3 3 3 3 1 1 m.f./.[.&X4X5X2X&XoX_.l.q.| P 7 3 3 3 3 3 3 3 3 3 3 3 3 3 3 1 3 3 ",
"3 3 3 3 3 3 3 3 3 3 3 3 3 3 4 , e R.l.'.#X2X5X5X2X&X+X].z.j.6.} K , 5 : 3 1 1 1 3 3 3 3 3 3 3 3 3 3 ",
"= 1 3 3 3 = 3 < < 4 w t M.K.L.U.!.g.'.#X3X6X7X4X1X&X+X{._.z.y.6.<./ L.J.N.m.e 5 3 3 1 3 3 3 : 3 : : ",
"3 1 < < 5 r m.K.I.U.W.~.f.g.l.).).[.#X3X6X5X7X6X1X&X+X{.]._.z.j.u.y.u.r.0.9.5.4.I.J.N.t w 4 < < 3 3 ",
": t T.E.!.~.|.^.^.).'.'.[.[.XXOX$X1X2X6X7X5X6X2X1X$X+XoX{.]._.z.z.z.k.k.z.k.j.j.y.h.d.f.5.5.4.L.e 3 ",
"5 P.l.).'.[.XXXXXXOX#X$X&X1X3X3X2X6X5X5X8X8X2X2X&X$XOXoX@X}.]._.(.(.z.z.z.(.z.z.k.k.j.j.y.t.6.<.V.> ",
": m.1.a.l./.'.[.OXOX&X&X3X2X6X6X5X5X5X8XD.D.9X1X&X&X+X*Xc.c.}._._._.(.(.(.z.z.z.k.j.y.q.6.#.} P 7 3 ",
"3 3 N.1.w.a.z._.'.{.oX#X&X1X2X6X6X6X2X,X=X;X X1X$X$X+XQ.:X-XE._._._._.(.z.z.k.k.a.u.8.7. .! L 6 1 3 ",
"3 3 3 n.<.=.i.s.z.(.'.{.+X$X&X1X1X1X1X X0XwXA.&X$X+XoXG.qX;XQ._._._._.(.z.k.j.y.q.6.| ~ m L 6 3 3 3 ",
"3 3 : = b. .@.-.i.k.z._.].oX+X+X#X$X$XF.;X0XA.$XoXoXoXC.0X-XC._._.z.z.z.k.j.u.6.O.] Q b M 6 3 3 1 3 ",
"= 3 3 3 4 b.' +.=.i.s.k.(._.].{.oX+X+XA.% & Z.+XoX{.{.C.& % U (.z.z.k.a.y.q.%.| ] T v M 9 : 3 3 3 3 ",
"3 3 3 3 3 > n.' X.*.;.i.k.z._.].].{.oXS.# o Z.{.{.].].U X # Y z.k.k.a.u.$.#.{ ~ m c M 9 > 3 3 3 3 3 ",
"3 3 3 3 3 : > n.' o.@.-.i.s.z._._.].].Z.O   U ]._._._.U . + P k.a.y.q.6.O.[ ~ b l M 0 : 3 = 3 3 3 3 ",
"3 = 3 3 3 3 3 > K ' ` @.-.i.k.z.z._._.C.+ O 2._.(.z.z.2.@ + I a.y.q.8.#.[ R b c M 0 : 3 3 3 3 3 3 3 ",
"3 3 3 3 3 3 3 : 5 K E ` *.;.s.k.z.z.(.W.@ $ 5.(.z.z.z.5.$ O <.y.u.8.%.| ~ m c g * - 3 3 3 3 3 3 3 3 ",
"3 3 1 3 3 = 3 3 3 5 K ( +.:.i.s.k.z.z./.U / x.z.z.k.k.l.,.I t.u.q.$.#.] T v g G - 3 3 1 3 3 3 3 3 3 ",
"= 3 1 3 = 3 3 : : 3 , Y ` *.i.s.s.k.k.z.k.z.z.k.k.k.k.k.a.a.y.q.6.%.| ~ b N G - 1 3 3 3 3 3 3 3 3 3 ",
"3 3 3 : 3 3 3 3 3 = 3 e ,.*.;.p.s.k.k.k.k.k.k.k.s.s.s.a.a.e.u.q.$.#.[ ! v V ; 3 3 3 3 3 3 = 3 3 3 3 ",
"3 3 3 3 3 3 3 3 3 3 3 w 3.:.i.s.s.k.k.k.k.k.s.s.a.a.i.i.e.e.q.q.%.O.] ! c F - 3 3 : 3 3 3 3 3 3 3 3 ",
"3 3 3 3 3 3 3 3 3 3 3 r 1.>.i.s.s.k.s.s.s.s.a.a.e.e.w.e.e.q.q.$.%...] ! c V - 3 : = 3 3 3 3 3 3 3 3 ",
"3 3 3 3 3 3 3 3 3 3 3 M.0.i.i.s.s.k.s.s.s.i.e.e.=.=.=.q.q.q.&.$.#.| ] ! v Z ; : 3 : 3 3 3 3 3 3 3 3 ",
"3 3 3 3 3 3 3 3 3 3 3 J.w.p.p.s.s.s.s.a.i.w.=.&.$.+.$.$.$.$.$.%.O.| ] ! b a 8 3 3 : 3 3 3 3 3 3 3 3 ",
"3 3 3 3 3 3 3 3 3 3 > L.i.p.p.s.s.s.i.w.=.$.+.O.O.o...O.O.#.#.O.O.| ] ~ m g 6 : 3 3 3 3 3 3 3 3 3 3 ",
"3 3 3 3 3 3 3 3 3 3 4 I.i.p.s.s.s.i.e.=.+.O.{ _ ) ) ) ) { { | | | { ] ~ m k q 1 3 3 3 3 3 3 3 3 3 3 ",
"3 3 3 3 3 3 3 3 3 1 5 U.p.p.s.s.i.-.&.O.{ ( E R R R R E E ( ) ) [ ] ] ~ Q c * : 3 3 3 3 3 3 3 3 3 3 ",
"3 3 3 3 3 3 3 3 3 : w W.p.i.i.i.=.+.{ ) E W n x z z x n W R R E E ( ' E Q v G > 3 3 3 3 3 3 3 3 3 3 ",
"3 3 3 3 3 3 3 3 3 3 e f.p.i.w.=.+.{ ( R x l j d f f j l x n W W W R E E Q b S - 3 3 3 3 3 3 3 3 3 3 ",
"3 3 3 3 3 3 3 3 3 1 t w.>.w.=.+.{ E n z j s i C F F D f d l x b n n W R T m p ; 3 3 3 3 3 3 3 3 3 3 ",
"3 3 3 3 3 3 3 3 3 3 K.i.;.=.O.[ E n l s u C G 7 : 3 7 H C s d l b b x n T n N 7 3 3 3 3 3 3 3 3 3 3 ",
"3 3 3 3 3 3 3 3 3 4 L.>.=.O.) R z d u p * 7 > 3 3 3 : 2 8 H p s j z x x n m v 9 3 3 3 3 3 3 3 3 3 3 ",
"3 3 3 3 3 3 3 3 3 4 P.:.+.) W l s a G 7 > : 3 3 3 3 : 3 1 - 7 H h s l z x b b 0 : 3 3 3 3 3 3 3 3 3 ",
"3 3 3 3 3 3 3 3 3 4 4.@.) n j p A 7 : 3 1 3 3 3 3 3 3 3 3 3 3 1 8 F p k l z b F : 3 3 3 3 3 3 3 3 3 ",
"3 3 3 3 3 3 3 3 3 - 5._ n M V 6 4 3 : : 3 3 3 3 3 3 3 3 3 3 3 3 1 : 9 S h j z J 4 3 3 1 3 3 3 3 3 3 ",
"3 3 3 3 3 3 3 3 1 5 <.B J 9 - 3 = 3 3 3 3 3 3 3 3 3 3 3 3 3 3 3 3 1 3 - q S g D 4 3 3 1 3 3 3 3 3 3 ",
"3 3 3 3 3 3 3 3 3 4 b.9 ; 1 3 1 3 3 3 3 3 3 3 3 3 3 3 3 3 3 3 3 3 3 3 3 3 ; 6 6 3 3 3 3 3 3 3 3 3 3 ",
"3 3 3 3 3 3 3 3 3 3 3 3 3 3 3 3 3 3 3 3 3 3 3 3 3 3 3 3 3 3 3 3 3 : 3 3 3 3 3 3 3 3 3 3 3 3 3 3 3 3 "
};
