/* XPM */
static char *b744eb09094945afd05d1b9e715984e3k3UZvpakO5K9GTG7[] = {
/* columns rows colors chars-per-pixel */
"50 50 237 2 ",
"   c #5C372F",
".  c #553936",
"X  c #5C3A34",
"o  c #5B3C3A",
"O  c #4F3534",
"+  c #633B34",
"@  c #6C3D35",
"#  c #663D36",
"$  c #773F35",
"%  c #6B372E",
"&  c #5E403E",
"*  c #6A423B",
"=  c #664038",
"-  c #7C4336",
";  c #74443B",
":  c #7B4339",
">  c #76463A",
",  c #674843",
"<  c #744A43",
"1  c #7B4C43",
"2  c #794B46",
"3  c #795349",
"4  c #795C56",
"5  c #6B5047",
"6  c #873E32",
"7  c #9C3F2D",
"8  c #8A412E",
"9  c #9D452D",
"0  c #844335",
"q  c #8C4535",
"w  c #84463B",
"e  c #83493D",
"r  c #8C4B3B",
"t  c #8C4838",
"y  c #924635",
"u  c #944936",
"i  c #9C4A35",
"p  c #934C3C",
"a  c #9B4D3B",
"s  c #9A4735",
"d  c #9D513F",
"f  c #93533D",
"g  c #A2462D",
"h  c #A44D35",
"j  c #AA4E35",
"k  c #A34E3A",
"l  c #AA4E39",
"z  c #AB5136",
"x  c #A4523D",
"c  c #AC533C",
"v  c #AC553B",
"b  c #B2553B",
"n  c #B4583C",
"m  c #B65639",
"M  c #BB613F",
"N  c #834C44",
"B  c #8B4D42",
"V  c #804F49",
"C  c #914E40",
"Z  c #8C5246",
"A  c #8C5A4D",
"S  c #885648",
"D  c #945243",
"F  c #9C5243",
"G  c #93554A",
"H  c #945A4D",
"J  c #9E5B4C",
"K  c #9C5549",
"L  c #8D5C53",
"P  c #875B55",
"I  c #945D53",
"U  c #9C5F52",
"Y  c #905F58",
"T  c #A35443",
"R  c #AB5542",
"E  c #A55A46",
"W  c #AB5A45",
"Q  c #A45B4B",
"!  c #AB5C4B",
"~  c #A05748",
"^  c #B15641",
"/  c #B35B44",
"(  c #BA5D42",
")  c #B55D4A",
"_  c #A55F51",
"`  c #AA5E51",
"'  c #A04E42",
"]  c #84635B",
"[  c #8C685F",
"{  c #8C635A",
"}  c #9A6155",
"|  c #93645C",
" . c #9D665B",
".. c #98665B",
"X. c #95604E",
"o. c #AD624D",
"O. c #B56145",
"+. c #BB6145",
"@. c #B4634D",
"#. c #BC654A",
"$. c #A46355",
"%. c #AB6354",
"&. c #A4655A",
"*. c #AB665A",
"=. c #A36A5D",
"-. c #AD6B5D",
";. c #AD6956",
":. c #B56452",
">. c #B86551",
",. c #B36C5C",
"<. c #B96B57",
"1. c #B9705D",
"2. c #8C6B64",
"3. c #866B65",
"4. c #946D65",
"5. c #9D6E65",
"6. c #956A63",
"7. c #8D726C",
"8. c #83726D",
"9. c #9E7166",
"0. c #94736C",
"q. c #9D746B",
"w. c #9C786F",
"e. c #8C7974",
"r. c #947B75",
"t. c #9C7B73",
"y. c #927D7A",
"u. c #9B7E79",
"i. c #987672",
"p. c #A36C63",
"a. c #AB6E62",
"s. c #B06E61",
"d. c #A37165",
"f. c #AA7266",
"g. c #A3756B",
"h. c #AD756A",
"j. c #A4796D",
"k. c #AA7A6E",
"l. c #B37363",
"z. c #BA7562",
"x. c #B2756A",
"c. c #B47B6D",
"v. c #BA7B6B",
"b. c #BC7769",
"n. c #A47C74",
"m. c #AC7D73",
"M. c #A47F78",
"N. c #A67B76",
"B. c #B37D72",
"V. c #BA7E72",
"C. c #C05E43",
"Z. c #C56A4B",
"A. c #C97354",
"S. c #C26C4F",
"D. c #C07464",
"F. c #94827D",
"G. c #9C827C",
"H. c #9D857B",
"J. c #A48077",
"K. c #AC8176",
"L. c #A4837C",
"P. c #AC847B",
"I. c #AD897F",
"U. c #A3887F",
"Y. c #B38275",
"T. c #B98375",
"R. c #B3857C",
"E. c #BA867A",
"W. c #B5897D",
"Q. c #BB897C",
"!. c #B8806F",
"~. c #C1897B",
"^. c #C3907F",
"/. c #9C8681",
"(. c #9D8A85",
"). c #9C8C8A",
"_. c #968884",
"`. c #9F928D",
"'. c #9C9591",
"]. c #A38682",
"[. c #AB8681",
"{. c #A48B84",
"}. c #AC8B83",
"|. c #A58E8A",
" X c #AA8E89",
".X c #B38C84",
"XX c #BB8D83",
"oX c #B28F89",
"OX c #B48781",
"+X c #A5928D",
"@X c #AC928C",
"#X c #AD9186",
"$X c #B39186",
"%X c #BC9186",
"&X c #B4938C",
"*X c #BA948B",
"=X c #BB998E",
"-X c #B5998E",
";X c #A39390",
":X c #AB9691",
">X c #AD9A94",
",X c #AD9D99",
"<X c #B19691",
"1X c #B99791",
"2X c #B49B94",
"3X c #BB9C94",
"4X c #B39E99",
"5X c #BA9F9A",
"6X c #AEA19C",
"7X c #B4A29C",
"8X c #BBA39C",
"9X c #B8A297",
"0X c #AEA3A1",
"qX c #B4A6A2",
"wX c #BCA6A1",
"eX c #B6AAA6",
"rX c #BCA9A4",
"tX c #BBADA9",
"yX c #BDB1AC",
"uX c #BEB8B3",
"iX c #C3948B",
"pX c #C79587",
"aX c #C19B93",
"sX c #C49F99",
"dX c #C58F83",
"fX c #C4A197",
"gX c #C2A49C",
"hX c #C4A89F",
"jX c #C2ABA5",
"kX c #C2AEA9",
"lX c #C7AAA4",
"zX c #C2B2AC",
"xX c #CBB2AB",
"cX c #C4B7B1",
"vX c #C9BBB5",
"bX c #D0BDB6",
"nX c #CFC9C5",
/* pixels */
"fX&X:XrX@X+X+X7XzX[.@X-X}.{.6X2XP.[.}.M.M.>X2Xm.-X.X*X3X$X7X{. XI..X=X2X8X.XfX*XhXxXgXzXXX%X*XR.iXfX",
"a.M.t 0 0 : ; < eXD p p 0 * ; >Xk a a l a d.} 7 g z j g a {.s h s s h d R.b / x c i c -XF G F E J T ",
"=X@XL.8X$XP.&XU.4X:X@Xu./.r. X1Xg.P.9.j.n.M.f.@X$Xm.W.4Xh.R.Y.}.$X}.3X@X>X@XrX$XOX*X3X3XR.<Xu.u.&X$X",
"R W J XXO.z W.a.R T .X2 # # 1XW W Q.&.p a l k n.^ ( ,.4Xi l h.7.; + /.* @ 0 &XR R &.m.F ` XX; C p @X",
"P.}.@X=XaX&X8XU.n.@X4X+X{.@X.XB.B.-XgX2XL.I..X3X#X2X-X3XI.9XzXcXwX$X3X$X3X$XgX8X7XgXhX*XI.2X2XrXaX1X",
"j l b l *X0 p w ; G B t.g.a x v ,.@.o.wXt x b v d.1X^ b / / @./ 1Xc o.@.m m R E.g.T c c c c l.kXm b ",
"m.R.I.I.-Xu.@X{.).+X,X:X XM. XU.R.*X*XzX{.[.W.8XgX8XI..X%X*X3X$X2Xq.$XW.Y.Q.=X*X*X}.$X@X.X2X*XgX%X*X",
"h i g.l.@.T.8XF e ; 4Xe @ ] J.p w {.d F F %XW K.n ( >.E.b b .X{ + + [.( ( O.R.o.E P.} w p .X/ M n *X",
"4X2X7X*X*XvXnX@X@X:X4XL.(. X<X@X[.5X[.P.n.2XH.>XG.{.wX&X XU.4X{.e.F.:X$X}.[.$XXXR.8X X].U.aX~.%X%X8X",
"l.}.! @.>.@.1.! &Xr r t t t t >X{ - - w w ] A # + @ 1 @ 3.4 # # + + * r  Xc C.( ( R ^ OXO.Z.Z.n #.A.",
"8X8XR.*XI..X}.$X,Xr.+XU.u.J.@X:XL.U.(.+Xy.@X0X;X|.@X@X].:X@X+X(./.{.`.t.3XE..X*XOX$X%X=XB.$X!.Y.c.XX",
"d d @XG w w @X+ X = @X> A Z L.0 y M.[ < # +X+ # 4.h *.q.E W 3Xl.@.>.$Xz v o.}.%.*.2Xv b v %X/ ) ) .X",
"{.U.7X+X@X].7X/._._.eX(.(.(.:Xu.t.@X7X(.,XeX@X,XqX{.2X>XI.P.2XI.@X$XwX&X2X-X8X}.}.7X3X*XP.8Xm.K.P.2X",
") @.v x }.$.T T a k T T 8Xx x x ! W R OX..p a a =.7Xf p a d s p .Xh b ( ( v x I.U p p w d r B &XT v ",
"z.l.B.p.@X&Xw.2.5.[.M.g.8XQ.g.m.m.$XP.{.].I.I.@X@X>Xw.t.w.g.t.L.4XP.m.P.I.P.n.}.u.+X[.t.q.H.t.7XY.T.",
"C B Z 4XB.%.*X XL Y +X&.T.W *Xo.o.,.].D | {.5.vXG G m.m.` $..Xh.x W $X_ R *.I.! %.` .XE.Q.8XP.Q h.8X",
"t.9.| 7Xm.m.2X+Xe.(.0XW.W.XXjX*X*X.X2Xu.+X+XL.uX{./. X<XP.P.7X8Xh.P.7Xn.k.R.oXf.m.M.5X3X*XcX Xm..XtX",
"a.2X,.,.,.) ! :.m.4Xi.4.6.| A P  XV L Z 2 < * @Xr H Z $ {.P.=.s.;.-.=.$.7Xb.^ / >.R R c.oX%.x.-.V.x.",
"g.@X%.%.-.%.%.%.h.{.n.i.4.4.4.L.2X0.G.{.{.u.H.>XG.r.y./.+X@Xd.m.g.m.d.k.zXm.-.a.x.R.P.}.2Xn.R.k.&Xm.",
"7Xa.a.@Xf.p.P.@Xd.4.].M.U I :Xb.1.,.*XT ! c.XXl.:.;.s.$X#.@.Q.W.h.m.$Xf.f. .}.,.>.W .X-.%.x.@X$.}  X",
"2X4...@XG =.G {.[ ] u.+XH.G.eX*Xc.B.&Xn.j.J.4Xq.P.d.n..X=.h..X#Xn.9.>X .6.7.{.=.&.U G...f.n.:X5. .[.",
"[.3XQ.k.m.fXT.h.3XOXB.[.4X7.e.3.3Xh.a.*X5.d.g.a.! }.W W a.8XR / x.t.6.2.:X0.7.t.8Xx.x.c.aXx.x.1X2.2.",
"m.:X=.p.g.3Xx.h.1Xk.Q &.$X[ 4 e.1X%.%..X*Xd.=.=.m.<Xk.c.Y.7Xq.I.8XqXH.G.6XF.H.t.8XI.W.2XwXM.g.2Xu.j.",
"z.s.a.s.,.%.3X2.p.| 2.L.u.@X.X&.-.l.x.T.E.8X5.-.,.;.k.5Xl.,.<.v.Q.Y.3X1.z.b.<.z.z.iXP.-.o.<.,.a.Q.kX",
"W.T.k.R.m.g.4X7.0.y.y.r.r.(. Xp.h.m.Y.T.W.cXw.d.Y.=X8X8XY.Y..XXXY.Y.jXk.P.W.B.Y.m.3X*XI.W..XP.$XXXzX",
") *Xl k g.v.>.x.8XJ V ] eXY 1 4. X ... X! &.&.%X%.K.#.z.-.T.b ) *X4.@ ; .X+.+.>..X! E P.} r F *XO.+.",
"XXrX@X&X7X-X%XvXnX XH.(.eXu.G.|.4X[.U.4XP.J.q.&XP.7XH.I.1X@XP.M.8X{.8.e.:X.XY.P.$XW.m.8X}.G.L.3X~.dX",
"S.A.b..X! @.>.,.D.*.4XZ p r p p p 2X| - - t t ] S @ + ; 1 @ 2.] @ @ + @ * Z @Xz ( ( ( ^ ^ OXO.Z.Z.+.",
"c.XXsX5XR.*XP.}.}.}.>Xt.@XU.t.n.@X:XM.H.].|.r.+X0X`.{.[.@XH.+X X+XH.H.{.`.n.2XT.W..X.X}.XX*Xc..Xc.Y.",
") .Xa p @XB 0 w @X+ X + @X1 S S M.0 q J.[ ; # +X+ # 0.k %.w.E W *Xl.o.<.$Xj c o.P.! -.2Xv n v *X/ ) ",
"I.2X X}.2X@X>X].>X[.U.].7X{.:XU.@XL.j.I.4X@X7X7X@X:X2X>X<X<X.XK.oXP.@XW.3X-X-X$X1XoX}.1X*X*XP.-Xk.}.",
"j z m m b l M._ k F a ' T a 2Xx k k W W x m.H a a F d.>Xf y a x u t }.h z n ( v x I.J t t 0 d w 0 }.",
"Y.aXh.=.g.[.2X1X@XG.n.[.{.g.3XB.[.P.p.OX@XM.J. X&XzX X@XL.U.t.9.oX.X.XI.[.P.P.P.[.P.j.-X2X@X{.:X{.4X",
"m.wXt G r <X,.W R.G.: < +X%.V.o..Xo.@.%.L.Z 2.H.I vX0 6 g.p.T *.$XOXR x }.Q R -.P.T *.~ R.l.x.5XK.a ",
"*X8XP.&Xm.3XR.c..XOX XeX>X&X.X[. X XwX].[.n./.G.y.eX].}.J.{.2X-X2X3XY.[.2XP.@XXXT.c.Y.Y..XgX8XjX.X.X",
"B.$._ [./ c c x c R -.[.6.N N N e A [.N V 1 1 2 P /.e 1 < ; H.g.a T x T T E 8Xl.l v / R T h.[._ a.` ",
"M.L.(.>X} d.$X{ r.4.:X).{.4X:X;X`.yXqX4XyXqX7X+X6X7.y.;XF.8.3.+Xd.d.g.8Xg.n.4Xg.q.t.4X(.U.rX[.n.M.2X",
"t t 0.3.X ; ].. . . )., H G.+ * * oX1 1 @X3 * * (.X X 8.[ 4 3 :XH A  .2Xp F gXt 0 w G.* * +Xw e r 3X",
"~.^.iXpXxX$X.X[.P.}.{.4X:X].u.L.].@X;X+X>X{.{.(.>XeXt.p.h.B.B.Y.&X2X$XP..X.X X2XjX*XP.}..XoX}.gXdXiX",
"A.Z.S.#.aXQ T ! S Z V ;XV ; : > - : r.L : - : > * e.B Z I  .5.H c.[.P L L } G Z 3X%.R R R F J aX+.Z.",
"dXiX7X3XU.(.kX.X&X2XvX$XI.wX4X:X X,X.XiX}.:XG.F.@Xg.m.1Xn. Xm.8Xm.m.2Xt.5.5.8Xk.K.@X3Xm.k.wXI.R.Y.lX",
"-.Q n.=.< , |.D B G .Xt y n.7.4 2 |.E W r ;X] 5 L.U G  X0.w.7.@X2.H M.L Y | 8X=.p.oXk.i u 2X0 G U 8X",
"`.eX).;X)._.(.;X0X).(._.F././.eX;X4X[.:X|.4XuX}.}.m.n.k.M.cXL.P.XXI.P.m.5Xn.L..X|.{.2X7X,X).|.{.(.{.",
"4 (.X , # ; @ < ).o & o . + $ >X@ ; ; > < ; ].6 - 8 $ : 0 8Xt p p F a T *Xr E D e @ , y.P     X + X ",
"[.U. XtX&X&XtX>X@X|.4X X}.$X,X_.e.'.G.u.r.>X@X>X3X.X}.yX[.2X*XqX{.[.gX3X*XXXlXpXpXpXrX3X&X8X3X.X*XbX",
"a p t L.q y oXD q | P.p p p ).O . '.N e : ].> r.a.J J &X8 y i F.+ @ /.u 8 i XXk c ^ L.X.A 7.g.a T $X",
"%X.X1X.X}.rX*X1XI..X*Xn.7Xj.[.J.[. Xu.].P.2X%XY.R.rXL. XY.Q..XI.P.wXXXiXpXB.iXaXbXE.pXY.*X3X*X.X8XaX",
"t r a x %.bXx T x x T x 8Xp p a a F a $Xp y 9 9 9 {.y u i i q s K }.l j n n v c gXx c l j j l h.{.w ",
"oX}..X8X,X,X{.2XG.|.2X3X8XP.cX}.&X2X}.2X}.@XK.P.-X&X}.hX}..X$X7XP.P.1XgX%X%XzXF./.(.jX.X.X-X&XR..X&X",
"-.a x <X  # # .Xe ; ;XJ t F kXK F M.U a x &X9 *.f.s h .Xs q a I.p a _ f.c ^ R.+   = [.h F J j.i a $X"
};
