/* XPM */
static char *_4954aa4dece4aa0b473f825ede32deb8eHKJcfBOKNCXeMp[] = {
/* columns rows colors chars-per-pixel */
"50 50 251 2 ",
"   c #653C2B",
".  c #74592A",
"X  c #764A4F",
"o  c #746A6C",
"O  c #696E65",
"+  c #D00A09",
"@  c #EB0202",
"#  c #FE0302",
"$  c #FE0904",
"%  c #F80909",
"&  c #FA1B1B",
"*  c #E8141C",
"=  c #FF1F20",
"-  c #F42D2D",
";  c #D73037",
":  c #945434",
">  c #8C6B3A",
",  c #AD6A1A",
"<  c #D55A39",
"1  c #904E50",
"2  c #927150",
"3  c #A9684B",
"4  c #A66955",
"5  c #B3734C",
"6  c #92536D",
"7  c #B24878",
"8  c #986A74",
"9  c #96716F",
"0  c #A7767A",
"q  c #B47172",
"w  c #A45D57",
"e  c #F74849",
"r  c #FB5656",
"t  c #E54C67",
"y  c #C37570",
"u  c #FB6161",
"i  c #EA7372",
"p  c #C6646A",
"a  c #53914E",
"s  c #6D9452",
"d  c #4BAF4F",
"f  c #54A74D",
"g  c #4CB04E",
"h  c #58B24E",
"j  c #4DAF51",
"k  c #4FA750",
"l  c #52AE52",
"z  c #58AC59",
"x  c #4CB050",
"c  c #52B153",
"v  c #5AB150",
"b  c #58B15C",
"n  c #69AA4D",
"m  c #65A95A",
"M  c #79A655",
"N  c #62B351",
"B  c #709D65",
"V  c #5AB263",
"C  c #4EA874",
"Z  c #66A868",
"A  c #79A564",
"S  c #6AB569",
"D  c #74B479",
"F  c #75AC76",
"G  c #9CB13D",
"H  c #B4B73A",
"J  c #AC8F23",
"K  c #CFB111",
"L  c #E2B908",
"P  c #C6A637",
"I  c #B0C43F",
"U  c #E5C707",
"Y  c #F6DC0B",
"T  c #E9CE11",
"R  c #FBE60B",
"E  c #F8E517",
"W  c #FDF41B",
"Q  c #D6C725",
"!  c #CECB31",
"~  c #E8D723",
"^  c #EAD330",
"/  c #DEE73E",
"(  c #F8E824",
")  c #FDF724",
"_  c #F1E82D",
"`  c #AE954F",
"'  c #91B74B",
"]  c #868B6B",
"[  c #948979",
"{  c #8A926D",
"}  c #B29076",
"|  c #8CAB74",
" . c #A6B178",
".. c #9B9A52",
"X. c #CC885D",
"o. c #DD905A",
"O. c #CFB04E",
"+. c #C79079",
"@. c #E29760",
"#. c #D2BB72",
"$. c #E3BC73",
"%. c #ADC74C",
"&. c #97C34A",
"*. c #DAC849",
"=. c #E9C64B",
"-. c #FDF947",
";. c #F2EB47",
":. c #DAD171",
">. c #EED46F",
",. c #D6E447",
"<. c #716188",
"1. c #162BFA",
"2. c #2434F9",
"3. c #4E3DCF",
"4. c #3D48E4",
"5. c #4C55EA",
"6. c #7168DD",
"7. c #B75584",
"8. c #976B81",
"9. c #987983",
"0. c #A97C86",
"q. c #B57C98",
"w. c #B76D90",
"e. c #C94C80",
"r. c #D15B8B",
"t. c #EA5D95",
"y. c #F65E9B",
"u. c #CA6695",
"i. c #C76896",
"p. c #D46D9E",
"a. c #DC669A",
"s. c #D5719F",
"d. c #CD7992",
"f. c #E7699B",
"g. c #F3639C",
"h. c #F5649A",
"j. c #F47991",
"k. c #D86FA0",
"l. c #DB72A3",
"z. c #D979A9",
"x. c #C86EA1",
"c. c #EA6AA1",
"v. c #FD6CAA",
"b. c #F969A4",
"n. c #E57BAC",
"m. c #E57AA8",
"M. c #FB72AC",
"N. c #EA7FB0",
"B. c #FB7AB5",
"V. c #FE7AB8",
"C. c #7E9E89",
"Z. c #7BA686",
"A. c #3EB6E8",
"S. c #988698",
"D. c #899A93",
"F. c #8D878B",
"G. c #B38F8E",
"H. c #8DB192",
"J. c #B7A989",
"K. c #A9B08B",
"L. c #9D97A4",
"P. c #AB96AD",
"I. c #A59BB2",
"U. c #AB90A9",
"Y. c #B1A5BA",
"T. c #AFA8B5",
"R. c #9DA9A9",
"E. c #C68C87",
"W. c #D99889",
"Q. c #C78A93",
"!. c #CB9395",
"~. c #EC918F",
"^. c #DAAB9A",
"/. c #D5B790",
"(. c #E7A695",
"). c #EEAF99",
"_. c #D694A7",
"`. c #D194A5",
"'. c #EA85B6",
"]. c #F287B9",
"[. c #F389BA",
"{. c #F389BA",
"}. c #E891A6",
"|. c #C8A6AA",
" X c #CFAFAE",
".X c #EAB6A8",
"XX c #F4B2AF",
"oX c #A4C9AC",
"OX c #B5D0B5",
"+X c #96C69E",
"@X c #EBD18C",
"#X c #CFC6AD",
"$X c #E7C4AA",
"%X c #FCC6AB",
"&X c #E8C8B8",
"*X c #FACCB7",
"=X c #FAD7B9",
"-X c #EEDBBB",
";X c #B7ACC2",
":X c #BCB4C8",
">X c #B08ECB",
",X c #FB8FC3",
"<X c #FA88C1",
"1X c #E89CCB",
"2X c #FD91C5",
"3X c #FE95CB",
"4X c #FE99CE",
"5X c #F29BCE",
"6X c #FE9CD2",
"7X c #F69DD3",
"8X c #EB8EC2",
"9X c #C9BCD1",
"0X c #C6BAC8",
"qX c #FEA2D6",
"wX c #FEA5DA",
"eX c #FEAADE",
"rX c #F7A0D3",
"tX c #EFB0CD",
"yX c #FEADE2",
"uX c #FAAFE6",
"iX c #FEB1E5",
"pX c #FFB5EB",
"aX c #FEB9ED",
"sX c #FFBCF1",
"dX c #CB9CC0",
"fX c #B3CCC5",
"gX c #C7C2CC",
"hX c #CCC4D7",
"jX c #D7C4D7",
"kX c #D1D8D8",
"lX c #E7CEC7",
"zX c #F9D7D6",
"xX c #F9D0CC",
"cX c #FDE3C5",
"vX c #F7E4DA",
"bX c #E3E3DA",
"nX c #DBD5E8",
"mX c #D0D0E8",
"MX c #E5DCE8",
"NX c #FFC1F4",
"BX c #E7DEF2",
"VX c #F7D9E1",
"CX c #E9E7EC",
"ZX c #F9E8E7",
"AX c #ECE7F5",
"SX c #F4EBF7",
"DX c #F5F4F3",
"FX c #FAF4FE",
"GX c #FEFEFE",
"HX c #FBF3F2",
"JX c #EDF1F4",
/* pixels */
"x x x x x x x x x x x x x x x x j x x x x x x x x x x x x g g x x x x x j x x j x x x x x x x x x x ",
"x x x x x x x x x x x x x x x x x x x x g g x g d ' N N %.N x x g x x x x x x x x x x x x x x x x x ",
"x x x x x x x x x x x x x x x x x x x x g g g g c O.*.:.OX` c x x x g x x d x x x x x x x x x x x x ",
"x x x x x x x x x x x x x x x x x x x x x g h %.! ^ ( ;.oXO.c x g x x x x x x x x x x x x x x x x x ",
"x x x x x x x x x x x x x x x x j x d x x g H Y R ) ) ) ) *.v x x x x x x x x x x x x x x x x x x x ",
"x x x x x x x x x x x x x x x x x x x x g v K T R ( R ) -.) ,.&.x x x x x x x g x x x x x x x x x x ",
"x x x x x x x x x x x x x x x x x x x x g ' K U T =.*.E -.-.~ ' g x x x x x x x x x x x x x x x x x ",
"x x x x x x x x x x x x x x x x x j x x x G J P #..X$X~ Y _ -.;.' x x x x x x g x x x x x x x x x x ",
"x x x x x x x x x x x x x x x x x x x x x G J 9.&XT.gX/.T U T Q N x x x x x x x x x x x x x x x x x ",
"x x x x x x x x x x x x x x x x x x g x x n ..I.zXmXCX-X~ O.U Q v x x x x j x x x x x x x x x x x x ",
"x x x x x x x x x x x x x x x x x x d g x g M  XzXvXZX@X>.$X~ ~ v x g x x x x x x x x x x x x x x x ",
"x x x x x x x x x x x x x x x x d x x x x x M 0 XXxX$X^ fX#.Y ~ h x d x x x x x x x x x x x x x x x ",
"x x x x x x x x x x x x x x x x x x x x x x f 8  X.X+.[ A.K.R ( N c x x x x g x x x x x x x x x x x ",
"x x x x x x x x x x x x x x x x x d x x j V oXD.9 8 8 8.q.` Y W / %.c x x x j x x x x x x x x x x x ",
"x x x x x x x x x x x x x x x x g x x x c fXCXMX6 r.'.qXiXtX=.R E I g x x x x x x x x x x x x x x x ",
"x x x x x x x x x x x x x x x x x x x x Z hXDXCXT.m.4XeXsXeX).R ! v d j x x j g x x x x x x x x x x ",
"x x x x x x x x x x x x x x x x d x x x Z ;XAXmXOXn.'.8XwX4X~.R ~ c x x x x x g d x x g x x x x x x ",
"x x x x j x x x x x x x x x g x x x x x z ;XgXJX|.x.G.|.p.n.X.R ( h x x x x x x x x x x x x d x x x ",
"x x x x x j x x x x x g d x g g x x x x D ;X<.nXAXP.MXCX6 w K R E h d d x x j x x x g x x x x x x x ",
"x x x x x x x x x x x x x x g x x x x x H.Y.O D.CXDXSXP.. , L R ~ h x j x x x g x x x x d g x x x x ",
"x x x x j x x x x x d d x x g x x g g x H.S.a o P.CXjX7.p 5 L R Q h d x x x g x x x x g x g g x x x ",
"j x x x x c S +XOXOXoXH.b x g x x x x x b ] 7 7.7 q.s.g.h.h.o.T ! c j j x l b V V b x x g d x x x x ",
"j x x x m J.lXFXGXGXGXFXCXoXb x g x x x A r.f.{.a.t.v.M.v.y.h.@.H c x l | #XbXDXDXbXOXD x g g g x x ",
"x x x n < & e HXGXGXGXGXGXFXkXS x x x l 0 p.].2X3Xc.b.v.v.b.h.b.` v S #XSXGXGXGXZXu e ~.H.x g x x x ",
"x x l < @ # - ZXGXGXGXGXzXi ~. Xb x x m i.n.[.4XqXwX'.c.v.v.g.t.G.D kXSXGXGXGXGXXX$ $ % i D x x x x ",
"x x s + @ # - ZXGXGXGXHXr $ $ e J.x x A z.'.2X6XqXyXaXuX'.c.g.y.f.gXBXFXGXGXGXGXXX$ $ $ = !.c x x x ",
"x j 2 + @ # u HXGXGXGXxX& $ # $ i b x F.l.'.3X6XqXyXaXNXsXuX8Xl.z._.~.VXGXGXGXGXxX& $ # # ~.b g x x ",
"g l 4 + @ % XXGXGXGXGXXX$ $ # # e D l q.m.].2X6XqXyXaXsXNXaXiXqX6X'.* r ZXGXGXGXHXr $ # # j.D x x x ",
"j j [ + + i AXFXGXGXGXXX$ # # # - | m x.m.].2X6XqXyXpXsXsXaXiXeX6X7Xt @ }.GXGXGXGXxX- # & }.D x x x ",
"x x D.0.Q.9XnXBXSXFXFXzX= # # # i D { p.m.{.2X6X6XeXpXsXsXaXpXyXqX6X'.* e SXGXGXGXGXzX}.}.gXV x x x ",
"x j F I.I.Y.;X:XhXnXBXBX~.& @ - |.z [ p.m.].2X4X6XwXiXaXaXaXpXiXwX6XrXt - VXSXFXSXAXnX9XY.Z.x x x x ",
"x x x Z.9.8.0.G.S.U.Y.:X9X_.d.|.H.c 0.p.m.].2X4X6XwXiXaXaXaXpXiXeXqX6Xm.; jXnXnXhXY.|.`.F x x x x x ",
"x x g j Z W.^.^.*X.X!.9.S.I.Y.R.z z w.p.n.{.2X4X4XqXyXaXaXaXpXiXyXqX6X5Xd.:X;XP.!..X&X=X| x g x x x ",
"x x x j f (.^..XcXcX*X).8 F.C.b j m i.p.n.].2X4X4XqXeXiXaXaXpXiXyXwX6X7XdXS.8 (.%X=X XcX#Xc g g x x ",
"x d x c m +.).=XcX=X%X).| j x x g B i.s.n.{.2X4X4XqXeXiXpXaXpXiXiXeXqX6X1X] +.).*XcXcX&X^.S g g x x ",
"g x m J.A 2   (..X.XW.} z j d d g { i.p.n.{.,X6X4X6XwXiXpXaXpXiXiXyXwX6XrXH.} W.).%X%Xq $X#Xc g x x ",
"x x A W.E.o 1 q W.(.^.T.C c l l l [ u.k.n.].,X3X4X6XwXyXiXpXpXiXiXyXwX6X7X|.s w q y q O G.-XS x x x ",
"j x l  .+.9 6 X 8 W.^.>X5.K.2 5 ..0.u.l.n.].,X3X4X6XqXeXiXpXpXiXyXyXeXqX6X5XQ.E.(..XG.3.q.^.| x x x ",
"x x x g l l n q q 4 3.1.1. XlXy y 7.i.l.n.{.,X3X4X4XqXeXyXpXpXiXeXyXeXqX4X7XtX$X.X=X/.2.4.Z c x x x ",
"d j x x x d n W.W.X.U.1.6.>.HX9 3 w.u.l.n.{.,X3X6X3X6XwXyXiXpXiXyXyXeXwX6X4X5X XVXvX:.4.5.F x x x x ",
"x j d d x x N G. XjX$.U.:.vXAXX 1 w.u.l.n.].,X3X6X3X6XwXeXiXiXiXyXyXyXwX6X3X5XjXFXFX>.:.@X .j x x x ",
"x x d d x f s 9 Y.9X0X$.&XBXfXa o i.i.l.n.].2X3X6X3X6XwXeXiXiXyXyXwXeXwX6X3X7XtXAXFXDXDXSXH.x x x x ",
"j g x x d > 5 4 S.I.;X:X:XT.Z g { i.u.l.n.{.,X3X6X3X6XqXeXyXiXiXeXwXeXwX6X4X3X1XjXBXAXMXY.m x x x x ",
"x d x j f > 3 5 w o D.D.Z.z d j [ u.u.l.n.[.2X3X6X3X4XqXwXeXyXyXyXeXwXwX6X6X3X5XU.L.L.9 3 5 l x x x ",
"x x x x j M ` 3 : : k j j g x j 0 u.u.l.'.<X2X3X6X3X4X6XwXeXyXyXeXwXqXwXqX6X3X5Xl.s   : X.5 n x x x ",
"x x x x j d l M ..a j x g g g B 7 e.u.m.'.[.2X3X6X2X6X6XwXwXyXyXeXwX6XqX6X6X,XB.v.Q.a . > > f x x x ",
"x x x x d x x x j x x x x x x ] q 7 e.r.f.b.M.B.B.B.<X3X6XqXwXqX6X3XV.B.B.M.v.b.b.| x d j j x x x x ",
"g x x x d d j x x x x x x x x x l { q r.t.g.g.b.M.g.b.M.B.V.V.V.V.B.M.m._.}.Q.E.{ c x x x g x x x x ",
"x x x x x x x x x x x x x x x x x x l z m A A A m A } E.!.`.`.`.!.G.| z c z c l x x x x x x x x x x ",
"x x x x x x x x x x x x x x x x x g j d x x x x x x x x l c l l x d j g x x x x x x x x x x x x x x "
};
