/* XPM */
static char *_fca5b37ed924b0fd53139ab62b8e6784dZBhPuJztaukq9t[] = {
/* columns rows colors chars-per-pixel */
"50 50 249 2 ",
"   c #3A1509",
".  c #34221B",
"X  c #332424",
"o  c #50160D",
"O  c #7E0503",
"+  c #6E0F0C",
"@  c #4A291B",
"#  c #5B2816",
"$  c #5A361C",
"%  c #642C13",
"&  c #693316",
"*  c #783918",
"=  c #702C17",
"-  c #583225",
";  c #4E312F",
":  c #69382C",
">  c #723831",
",  c #5B482B",
"<  c #7A4226",
"1  c #704735",
"2  c #776A36",
"3  c #091B5D",
"4  c #081D68",
"5  c #061D77",
"6  c #14276A",
"7  c #0A257A",
"8  c #122574",
"9  c #23386E",
"0  c #0E215B",
"q  c #522D49",
"w  c #653746",
"e  c #55386F",
"r  c #712154",
"t  c #324F6D",
"y  c #37656C",
"u  c #3D6E74",
"i  c #394C5B",
"p  c #575659",
"a  c #724E4B",
"s  c #6F7148",
"d  c #545562",
"f  c #6F5E61",
"g  c #777778",
"h  c #746B6C",
"j  c #417F6A",
"k  c #990201",
"l  c #8F150F",
"z  c #A90401",
"x  c #B80202",
"c  c #B31811",
"v  c #8D2C16",
"b  c #B1261C",
"n  c #B6142D",
"m  c #983922",
"M  c #86382E",
"N  c #B72924",
"B  c #AE3526",
"V  c #CD0102",
"C  c #C30503",
"Z  c #DC0101",
"A  c #D50402",
"S  c #D60A19",
"D  c #E40201",
"F  c #EB0503",
"G  c #FD0B01",
"H  c #F50802",
"J  c #F6160F",
"K  c #F4281C",
"L  c #D5152A",
"P  c #F41526",
"I  c #D82D2D",
"U  c #F72825",
"Y  c #EE2F2F",
"T  c #86452C",
"R  c #854B33",
"E  c #985537",
"W  c #945833",
"Q  c #AE5736",
"!  c #926937",
"~  c #B06138",
"^  c #D84B3D",
"/  c #FB4C3D",
"(  c #C65325",
")  c #A81D60",
"_  c #D3246C",
"`  c #90534A",
"'  c #A45B44",
"]  c #986D45",
"[  c #A8654A",
"{  c #B76847",
"}  c #B8714E",
"|  c #B77655",
" . c #B26D54",
".. c #817977",
"X. c #B77866",
"o. c #F74E46",
"O. c #C67B57",
"+. c #CD7351",
"@. c #E27954",
"#. c #D0776B",
"$. c #EA6B63",
"%. c #F86863",
"&. c #E77F66",
"*. c #DB4342",
"=. c #729250",
"-. c #4BAF4F",
";. c #4CB04E",
":. c #4DAF51",
">. c #4EAD5A",
",. c #52AE51",
"<. c #58AD57",
"1. c #4CB050",
"2. c #4EB05D",
"3. c #51B154",
"4. c #59B25A",
"5. c #53AD4E",
"6. c #6AA34E",
"7. c #68AA57",
"8. c #75AA58",
"9. c #73B55D",
"0. c #6CAE56",
"q. c #4C9670",
"w. c #7A9A79",
"e. c #4EA864",
"r. c #53A974",
"t. c #74B071",
"y. c #5D9A4C",
"u. c #D0AC30",
"i. c #919753",
"p. c #A99956",
"a. c #88A75D",
"s. c #91AC5D",
"d. c #8A8A77",
"f. c #B38B66",
"g. c #8AA867",
"h. c #90B16D",
"j. c #ADAB75",
"k. c #ABA96D",
"l. c #D7875B",
"z. c #C88753",
"x. c #D98966",
"c. c #D69572",
"v. c #E68A67",
"b. c #E89469",
"n. c #F59B6C",
"m. c #E79678",
"M. c #E78A77",
"N. c #CCAE6F",
"B. c #F5A26E",
"V. c #FAA879",
"C. c #E0BC7E",
"Z. c #A8C279",
"A. c #F2DF59",
"S. c #061E84",
"D. c #061F93",
"F. c #0C298A",
"G. c #122B88",
"H. c #0B2993",
"J. c #0E3199",
"K. c #142F93",
"L. c #2B348F",
"P. c #0F35A5",
"I. c #1339AB",
"U. c #1435A7",
"Y. c #133BB3",
"T. c #153DB9",
"R. c #0725A1",
"E. c #2D3BA9",
"W. c #4D3D90",
"Q. c #6A36A0",
"!. c #2D4588",
"~. c #2F47BA",
"^. c #2956B5",
"/. c #467693",
"(. c #6A73A2",
"). c #7E7D85",
"_. c #163FC1",
"`. c #1641C3",
"'. c #1A45CC",
"]. c #1844C8",
"[. c #1A47D1",
"{. c #1C49D3",
"}. c #1D4BD8",
"|. c #2B49CA",
" X c #204CD9",
".X c #3550D2",
"XX c #1E4EE1",
"oX c #224EE1",
"OX c #2553E8",
"+X c #395BE4",
"@X c #3B6DDE",
"#X c #4E70D2",
"$X c #5D52CE",
"%X c #B03294",
"&X c #9D329A",
"*X c #826A8E",
"=X c #8146C4",
"-X c #56929B",
";X c #7EBA82",
":X c #588BAD",
">X c #61AC99",
",X c #548FC5",
"<X c #6596D4",
"1X c #858487",
"2X c #8C8C91",
"3X c #98989A",
"4X c #8E918E",
"5X c #A59292",
"6X c #89B28B",
"7X c #9A99AA",
"8X c #A9A9B5",
"9X c #B8B7B9",
"0X c #AAA9A7",
"qX c #A5A0AA",
"wX c #DD9294",
"eX c #ED9896",
"rX c #ED9084",
"tX c #CFAA96",
"yX c #F9A884",
"uX c #FEB889",
"iX c #FDBA93",
"pX c #ECB286",
"aX c #EB9DA1",
"sX c #CDB1B3",
"dX c #EBADAB",
"fX c #8EC492",
"gX c #ADCBB1",
"hX c #B7CB86",
"jX c #FCC795",
"kX c #FBCA93",
"lX c #F5D1AB",
"zX c #AFB4C7",
"xX c #BACDD4",
"cX c #C8C7C9",
"vX c #C3DBC7",
"bX c #D5D4D6",
"nX c #DCD1CF",
"mX c #F0D4D4",
"MX c #D5E6D9",
"NX c #D8D9E4",
"BX c #E5E7E8",
"VX c #E5ECF8",
"CX c #EBF2FC",
"ZX c #F4F5FA",
"AX c #F5FAFD",
"SX c #FBFCFE",
"DX c #F3F5F4",
"FX c #F4E9EA",
"GX c #E8DEEA",
/* pixels */
"1.1.1.1.1.1.1.1.1.1.1.1.1.1.1.1.1.:.1.1.1.1.1.1.1.:.1.1.1.1.1.1.1.-.1.1.1.1.1.1.1.1.1.1.1.1.1.1.1.1.",
"1.1.1.1.1.1.1.1.1.1.1.1.1.1.1.1.1.1.1.1.1.:.1.1.1.1.1.1.1.,.3.3.1.;.1.1.1.1.1.:.1.1.1.1.1.1.1.1.1.1.",
"1.1.1.1.1.1.1.1.1.1.1.1.1.1.1.1.1.1.1.1.1.1.1.1.1.1.<.g.f.l.+.z.p.<.1.1.1.1.1.1.1.1.1.1.1.1.1.1.1.1.",
"1.1.1.1.1.1.1.1.1.1.1.1.1.1.1.1.1.-.1.1.1.1.1.1.4.k.&./ K G U rXaXm.8.1.;.;.1.1.1.1.1.1.1.1.1.1.1.1.",
"1.1.1.1.1.1.1.1.1.1.1.1.1.1.1.1.1.1.1.1.-.1.1.h.M.o.J H H J aXmXdXdXaX8.1.1.;.;.1.1.1.1.1.1.1.1.1.1.",
"1.1.1.1.1.1.1.1.1.1.1.1.1.1.1.1.1.1.:.1.1.:.j.%.U J F F H K dXeXeXeXdXc.3.1.;.1.1.1.1.1.1.1.1.1.1.1.",
"1.1.1.1.1.1.1.1.1.1.1.1.1.1.1.1.1.1.1.1.3.j.%.U F D D F H J wX#.FXFXeXM.9.1.1.1.1.1.1.1.1.1.1.1.1.1.",
"1.1.1.1.1.1.1.1.1.1.1.1.1.1.1.1.1.1.1.1.h.$.K Z Z Z D D F F Y wXdXdXdXo.f.0.3.1.1.1.1.1.1.1.1.1.1.1.",
"1.1.1.1.1.1.1.1.1.1.1.1.1.1.1.1.1.1.1.9.v.I A V V A Z Z S P P U I I N b B B ~ i.1.1.1.1.1.1.1.1.1.1.",
"1.1.1.1.1.1.1.1.1.1.1.1.1.1.1.1.1.1.0.c.I C C C V V S Y Y L b m m m v l l l l ! ,.:.1.1.1.1.1.1.1.1.",
"1.1.1.1.1.1.1.1.1.1.1.1.1.1.1.1.3.k.$.*.c z z x x L I N +   @ W { { R o O l v =.1.1.1.1.1.1.1.1.1.1.",
"1.1.1.1.1.1.1.1.1.1.1.1.1.1.1.1.t.$.I c z k k k b B E T R [ } [ x.b. .[ v ! =.:.1.1.1.1.1.1.1.1.1.1.",
"1.1.1.1.1.1.1.1.1.1.1.1.1.1.1.1.h.^ c z k k O o W ' { O.c.5XsXpXkXkXsXdX7.,.1.;.:.1.1.1.1.1.1.1.1.1.",
"1.1.1.1.1.1.1.1.1.1.1.1.1.1.1.1.7.+.N b l + o   W O.n.uXsX(.zXmXjXkX7XnXh.4.3.;.1.1.1.1.1.1.1.1.1.1.",
"1.1.1.1.1.1.1.1.1.1.1.1.1.1.1.1.1.s.m.yXx.: # # T x.V.uXsXL.(.mXuXjXrXiXlXlXhX3.1.1.1.1.1.1.1.1.1.1.",
"1.1.1.1.1.1.1.1.1.1.1.1.1.1.1.1.1.j.n.@.+.' # o = x.yXiXtX:X8XlXb.x.V.iXlXlXlXh.1.1.1.1.1.1.1.1.1.1.",
"1.1.1.1.1.1.1.1.;.1.1.1.:.-.-.;.:.N.V.b.{ ~ R % [ yXiXm.1 a f.f.[ | x.V.jXjXkXZ.;.1.1.1.1.1.1.1.1.1.",
"1.1.1.1.1.1.1.1.1.;.1.1.:.:.1.1.1.s.yXyX+.{ [ ' c.yXV.#.: X ; ; - [ | l.B.V.pX9.1.1.1.1.1.1.1.1.1.1.",
"1.-.1.1.1.1.1.1.1.1.1.3.4.1.3.,.<.0.N.yXM. . .x.m.M.b.O.[ R - X X - ' | O.| g.1.1.t.gXfX4.1.1.1.1.1.",
"1.1.1.1.1.1.1.1.1.4.t.vXMXvXc.@.o.Y U U / ^ Q O.@.O.x.v.b.n.} R 1 @ . @ 1 g.h.gX0XcXNXDXvX4.:.1.1.1.",
"1.1.-.1.1.;.3.fXvXBXDXZXBXBXFX%.G G G G G G G K Q { } O.x.b.b.v.x.z.O.x.C.t.5XbXBX9X9XNXDXMX4.1.1.1.",
"-.1.1.1.1.;XMXZXAXAXSXSXSXZXBXmXY G G H G G G G F m ' } | O.x.n.B.B.V.C.9.t.h 3XbX0X0X9XNXZXgX1.1.1.",
":.1.:.1.fXDXAXAXAXAXZXSXSXSXDXBXeXD Z V Z D F G G H ) W.a [ | O.b.B.N.0.3.w.h h g p 1X8XcXBXBX4.1.1.",
"1.:.:.3.xXVXVXCXCXCXCXZXSXSXAXbXtXQ W v z x V D H G P $X|.r M ` +.p.7.=.i...h 2X7Xp f 2X9XBXDXt.1.1.",
"1.1.:.3.gXzXxXNXNXVXCXZXZXZXDXcXt.5.,.=.l O k C D F G &XOX$XL r L J b = + h 8X2X3X).d g 3X0XgX3.1.1.",
"1.1.1.1.;X3X8X8XzXNXBXFXBXBXBXfX;.1.:.-Xn V A Z D H G _ OX+X_ L ) D Z k z : 3X9X*X1Xg g 4Xt.3.1.1.1.",
"1.1.:.-.:.w.3Xg 2X9XbXbXcXcXbXt.;.1.>.,XQ.) S D D F P %X$X0X7X%X*X( V z k + a 3X2Xg w.t.4.1.1.1.1.1.",
"1.:.1.1.1.4.6Xh g 3X9X9X1X0XgX3.1.1.>X#XY.E.Q.&X%X%X=X.X5XA.A.+X$Xu.v v < 2 =.7.t.7.1.1.1.1.1.1.1.1.",
"1.1.1.1.:.1.4.w.d.4X9XcX0X9X6X:.1.:.<X.XY.Y.Y.`.|.{.}.'.(.u.tX+X.Xk.6.6.,.:.1.1.1.1.1.1.1.1.1.1.1.1.",
":.1.1.1.1.1.1.1.<.t.d.....d.2.:.;.r.<X|.Y.Y.Y._.`.'.{.{.T.~.|. X#Xr.:.1.:.1.1.1.1.;.1.1.1.1.1.1.1.1.",
"1.1.1.1.1.1.1.1.3.=.f : q L./.>.;.>X+XY.I.Y.T.Y.T.].'.'.'.'.[. X#X2.1.1.;.1.:.1.:.1.1.1.1.1.1.1.1.1.",
"1.1.:.-.1.1.:.1.=.f - q G.S.K./.-X<X|.U.J.U.Y.Y.Y.`.].].'.].].'.#X>.1.1.1.;.1.1.1.:.1.;.1.1.1.:.1.1.",
"1.1.1.1.1.1.1.0.d.< > L.5 S.D.R.U.#X~.H.J.P.I.I.Y.T._.].[.[. X|.:X1.1.1.:.-.-.1.1.1.1.:.1.1.1.1.1.1.",
"1.1.;.1.;.;.s.f.R * W.F.5 S.F.H.H.~.E.G.H.P.Y.`.].{.}.XXXXOXOX+X,Xe.1.:.-.1.-.:.1.1.1.1.1.1.1.1.1.1.",
"1.1.1.1.1.a. .T * > U.7 5 5 S.S.S.H.L.G.7 J.I.Y.`.`.'.{.}.oXOXOXOX#Xr.1.:.:.:.:.1.1.;.1.1.;.1.;.1.1.",
"1.1.1.1.8.] < * * w G.4 4 5 5 5 5 5 8 9 8 7 H.U.I.Y.T.`.'.{.XXOXOXOX,X:.1.1.:.3.1.1.1.1.1.-.-.1.1.1.",
"1.1.1.1.=.1 * * * : 4 4 4 4 4 4 4 4 3 3 6 6 8 7 F.J.I.I.T.`.[. XOXOX@Xr.1.<.g.p.p.a.3.1.1.1.1.1.1.1.",
"1.1.1.1.7., % & * # i y y 9 6 4 4 4 3 3 0 9 t 9 6 4 7 H.J.Y.`.{.oXOXOX@X-Xs E ~ ~ +.k.3.1.1.1.1.1.1.",
":.1.:.1.3.=., $ , s ,.:.:.>.q.j y y y u q.e.>.e.q.y 9 6 F.P.T.].}.OXXX}.e a ` ' | { { t.1.:.1.1.1.1.",
"1.1.-.1.1.:.<.6.<.:.1.;.1.1.1.1.:.:.:.:.1.1.1.1.1.:.e.u G.P.Y._.{. X}.|.w 1 R E X. .E g.1.1.1.1.1.1.",
"1.1.1.1.1.1.1.1.1.1.1.1.1.1.1.1.1.1.1.1.1.1.1.1.1.1.1.q.L.H.U.Y.].{.].W.: * M T E E Q N.3.;.;.;.1.1.",
"1.1.1.1.1.1.1.1.1.1.;.-.1.1.1.1.1.1.1.1.1.1.1.1.1.1.1.:./.G.J.U.T.`._.e & * * * M E N.9.;.;.:.1.1.1.",
"1.1.1.1.1.1.1.1.1.1.1.-.1.1.1.1.1.1.1.1.1.1.1.1.1.1.1.;.r.!.F.J.U.Y.E.: & & & * W z.9.;.;.1.;.1.1.1.",
"1.1.1.1.1.1.1.1.1.1.-.-.1.1.1.1.1.1.1.1.1.1.1.1.1.1.;.;.;.q.G.F.U.L.w & & % & ! p.<.;.1.1.:.1.1.1.1.",
"1.1.1.1.1.1.1.1.1.1.1.1.1.1.1.1.1.1.1.1.1.1.1.1.1.1.1.1.-.:./.G.8 q & % % < ] 8.;.1.1.1.1.1.1.1.1.1.",
"1.1.1.1.1.1.1.1.1.1.1.1.1.1.1.1.1.1.1.1.1.1.1.1.1.1.1.1.1.1.r.d @ # # & ! 8.3.1.1.1.1.1.:.1.1.1.1.1.",
"1.1.1.1.1.1.1.1.1.1.1.1.1.1.1.1.1.1.1.1.1.1.1.1.-.1.1.1.1.1.1.y., @ $ ! 6.1.:.1.-.1.1.1.1.:.1.1.1.1.",
"1.1.1.1.1.1.1.1.1.1.1.1.1.1.1.1.1.1.1.1.1.1.1.1.1.1.1.1.1.1.1.1.:.y.y.5.1.;.1.1.1.:.1.1.1.1.1.1.1.1.",
"1.1.1.1.1.1.1.1.1.1.1.1.1.1.1.1.1.1.1.1.1.1.1.1.1.1.1.1.1.1.1.1.1.1.1.1.1.1.1.1.1.1.1.1.1.1.1.1.1.1.",
"1.1.1.1.1.1.1.1.1.1.1.1.1.1.1.1.1.1.1.1.1.1.1.1.1.1.1.1.1.1.1.1.1.1.1.1.1.1.1.1.1.1.1.1.1.1.1.1.1.1."
};
